<?xml version="1.0" encoding="UTF-8" standalone="no"?>
<!-- Created with Inkscape (http://www.inkscape.org/) -->

<svg
   width="91.856674mm"
   height="91.856689mm"
   viewBox="0 0 91.856674 91.856689"
   version="1.1"
   id="svg5"
   xml:space="preserve"
   inkscape:version="1.2.1 (9c6d41e410, 2022-07-14)"
   sodipodi:docname="ratbert_scratch.svg"
   xmlns:inkscape="http://www.inkscape.org/namespaces/inkscape"
   xmlns:sodipodi="http://sodipodi.sourceforge.net/DTD/sodipodi-0.dtd"
   xmlns="http://www.w3.org/2000/svg"
   xmlns:svg="http://www.w3.org/2000/svg"><sodipodi:namedview
     id="namedview7"
     pagecolor="#ffffff"
     bordercolor="#000000"
     borderopacity="0.25"
     inkscape:showpageshadow="2"
     inkscape:pageopacity="0.0"
     inkscape:pagecheckerboard="0"
     inkscape:deskcolor="#d1d1d1"
     inkscape:document-units="mm"
     showgrid="false"
     inkscape:zoom="11.089338"
     inkscape:cx="487.63056"
     inkscape:cy="920.29841"
     inkscape:window-width="2880"
     inkscape:window-height="1514"
     inkscape:window-x="2869"
     inkscape:window-y="-11"
     inkscape:window-maximized="1"
     inkscape:current-layer="layer1" /><defs
     id="defs2" /><g
     inkscape:label="Vrstva 1"
     inkscape:groupmode="layer"
     id="layer1"
     transform="translate(-74.283708,-162.41175)"><circle
       style="fill:#ff2a2a;stroke:#000000;stroke-width:2.5;stroke-dasharray:none;stroke-opacity:1;stop-color:#000000"
       id="path354"
       cx="120.21204"
       cy="208.3401"
       r="44.678337"
       inkscape:export-filename="ratbert.svg"
       inkscape:export-xdpi="17.697136"
       inkscape:export-ydpi="17.697136" /><g
       id="g3038"
       transform="matrix(3.5721026,0,0,3.5721026,-310.13966,-533.47369)"
       style="stroke-width:0.699868;stroke-dasharray:none"><path
         style="fill:#fbb158;fill-opacity:1;stroke:none;stroke-width:0.699868;stroke-linecap:round;stroke-linejoin:round;stroke-dasharray:none;stroke-opacity:1;stop-color:#000000"
         d="m 118.49018,220.01764 c 0.44514,-1.76749 9.30705,-4.59337 10.0855,-2.81847 0,0 -2.67489,1.92114 -4.73355,2.51553 -1.75553,0.50686 -5.35195,0.30294 -5.35195,0.30294 z"
         id="path5649"
         sodipodi:nodetypes="ccsc" /><path
         id="path1368"
         style="fill:#ffffff;stroke:#000000;stroke-width:0.699868;stroke-linecap:round;stroke-linejoin:round;stroke-dasharray:none;stop-color:#000000"
         d="m 119.10537,206.23343 c 0,0.79392 -0.62822,1.40583 -1.40172,1.43752 -0.76917,0.0315 -1.5173,-0.30013 -1.40171,-1.43752 0.0862,-0.84828 0.69039,-1.37405 1.38906,-1.34051 0.77326,0.0371 1.41437,0.54659 1.41437,1.34051 z"
         sodipodi:nodetypes="sssss" /><g
         id="g1436"
         transform="rotate(2.4895854,115.42986,211.5235)"
         style="fill:#fbb158;fill-opacity:1;stroke-width:0.699868;stroke-dasharray:none"><path
           style="fill:#fbb158;fill-opacity:1;stroke:#000000;stroke-width:0.699868;stroke-linecap:round;stroke-linejoin:round;stroke-dasharray:none;stroke-opacity:1;stop-color:#000000"
           d="m 119.3373,204.91939 c -0.38553,-0.91377 -0.64218,-2.12899 -0.21931,-3.43699 0.39277,-1.21492 2.85269,-1.73963 2.34143,-1.15566 -1.27686,2.42857 0.36367,3.35188 0.85814,4.02442"
           id="path1433"
           sodipodi:nodetypes="cscc" /></g><path
         style="fill:#fbb158;fill-opacity:1;stroke:#000000;stroke-width:0.699868;stroke-linecap:round;stroke-linejoin:round;stroke-dasharray:none;stroke-opacity:1;stop-color:#000000"
         d="m 128.57568,217.19917 c 0.0575,-1.68504 -0.21544,-8.00221 -1.98382,-11.89548 -0.53225,-1.17178 -0.34478,-2.50884 -0.14341,-3.66101 0.0844,-0.4831 1.06892,-0.91549 0.97853,-1.2822 -0.15217,-0.61732 -1.76957,-0.55726 -2.5644,-0.0337 -0.93256,0.61423 -1.44405,2.31715 -1.56034,2.85206 -1.69458,0.082 -2.84866,-0.21936 -3.92275,1.23074 -0.49965,0.67457 -0.21841,1.84579 -0.92791,2.29446 -2.69039,1.70132 -6.87966,1.90979 -7.71744,4.83926 -0.19375,0.67748 0.24146,1.91869 0.91625,2.1217 3.17895,0.95638 10.44806,-1.73981 10.44806,-1.73981 l -3.48471,1.20908 c -0.0565,2.46929 0.30447,4.87852 -0.12356,6.88337"
         id="path471"
         sodipodi:nodetypes="csssscssssccc" /><path
         id="ellipse2965-2"
         style="stroke-width:0.699868;stroke-linecap:round;stroke-linejoin:round;stroke-dasharray:none;stop-color:#000000"
         d="m 117.64239,206.25848 c 0.10124,0.19169 -0.0316,0.53548 -0.25076,0.56062 -0.21915,0.0251 -0.37787,-0.15965 -0.39223,-0.33307 -0.0144,-0.17342 0.0619,-0.30399 0.19677,-0.35959 0.13484,-0.0556 0.34498,-0.0597 0.44622,0.13204 z"
         sodipodi:nodetypes="zzzzz" /><path
         id="path1364"
         style="stroke:#000000;stroke-width:0.699868;stroke-linecap:round;stroke-linejoin:round;stroke-dasharray:none;stop-color:#000000"
         d="m 112.95061,209.81633 c -0.005,0.56001 -0.38381,0.85861 -0.93563,0.97184 -0.5447,0.11178 -1.0946,-0.4377 -1.0959,-1.00558 -10e-4,-0.56003 0.45605,-0.88278 0.99467,-1.04776 0.57946,-0.1775 1.04195,0.46546 1.03686,1.0815 z"
         sodipodi:nodetypes="sssss" /><path
         id="path1366"
         style="fill:#ffffff;fill-opacity:1;stroke:#000000;stroke-width:0.699868;stroke-linecap:round;stroke-linejoin:round;stroke-dasharray:none;stop-color:#000000"
         d="m 122.60409,206.16771 c -0.0971,0.78796 -0.72016,1.54918 -1.5283,1.5205 -0.85457,-0.0303 -1.43207,-0.69673 -1.51481,-1.45932 -0.0795,-0.7325 0.62884,-1.68559 1.47667,-1.7187 0.88115,-0.0344 1.6664,0.84627 1.56644,1.65752 z"
         sodipodi:nodetypes="sssss" /><path
         id="ellipse2965"
         style="stroke-width:0.699868;stroke-linecap:round;stroke-linejoin:round;stroke-dasharray:none;stop-color:#000000"
         d="m 121.08023,206.23986 c 0.0119,0.20364 -0.12575,0.43606 -0.3383,0.44186 -0.21255,0.006 -0.42394,-0.16644 -0.42648,-0.39491 -0.002,-0.22847 0.17766,-0.44532 0.39754,-0.43295 0.21987,0.0123 0.35532,0.18235 0.36724,0.386 z"
         sodipodi:nodetypes="zzzzz" /></g><circle
       style="fill:none;stroke:#000000;stroke-width:2.5;stroke-dasharray:none;stroke-opacity:1;stop-color:#000000"
       id="circle4853"
       cx="120.21204"
       cy="208.3401"
       r="44.678337" /></g></svg>
